<?xml version="1.0" encoding="UTF-8"?>
<!DOCTYPE svg PUBLIC "-//W3C//DTD SVG 1.1//EN" "http://www.w3.org/Graphics/SVG/1.1/DTD/svg11.dtd">
<!-- Creator: CorelDRAW 2021.5 -->
<svg xmlns="http://www.w3.org/2000/svg" xml:space="preserve" width="210mm" height="297mm" version="1.1" style="shape-rendering:geometricPrecision; text-rendering:geometricPrecision; image-rendering:optimizeQuality; fill-rule:evenodd; clip-rule:evenodd"
viewBox="0 0 21000 29700"
 xmlns:xlink="http://www.w3.org/1999/xlink"
 xmlns:xodm="http://www.corel.com/coreldraw/odm/2003">
 <defs>
  <style type="text/css">
   <![CDATA[
    .fil2 {fill:#F0F6EC}
    .fil3 {fill:#EAF3E8}
    .fil0 {fill:#006747}
    .fil1 {fill:#43996F}
   ]]>
  </style>
    <clipPath id="id0">
     <path d="M2959.4 7358.83l14611.08 338.96 0 14987.05 -14611.08 -338.96 0 -14987.05z"/>
    </clipPath>
 </defs>
 <g id="Layer_x0020_1">
  <metadata id="CorelCorpID_0Corel-Layer"/>
  <circle class="fil0" cx="10224.21" cy="14445.56" r="7506.9"/>
  <path class="fil1" d="M16851.07 17788.93c22.44,10.13 70.12,51.94 58.88,73.89 -1243.43,2427.87 -3770.55,4089.58 -6685.76,4089.58 -2872.97,0 -5369.03,-1613.93 -6630.91,-3984.56 -6.56,-12.34 -19.84,-37.33 -30.14,-57.2 -22.91,-44.2 104.82,-96.1 126.44,-121.71 34.7,-41.1 3497.26,0 6891.49,0 440.32,0 6196.21,-33.29 6270,0z"/>
  <g id="_1940251352384">
   <g style="clip-path:url(#id0)">
    <image x="2959.4" y="7358.83" width="14611.08" height="15326.01" xlink:href="лого без ліній 2 з тінню_Images\лого без ліній 2 з тінню_ImgID1.png"/>
   </g>
  </g>
  <path class="fil2" d="M10452.59 17903.46l141.37 -0.01c-70.74,4.73 -137.79,44.03 -141.37,103.58l0.01 567.79 3775.97 12.95c782.07,-19.14 1035.73,415.91 -4.16,380.99l-3625.46 35.21c-94.05,7.73 -141.69,31.89 -147.72,108.72l0 432.42 2916.85 8.41c1042.87,29.06 1155.95,318.67 -198.67,375.83l-2574.27 54.53c-81.48,9.6 -118.74,29.44 -142.54,121.07l0 440.38 942.34 6.76c1034.13,11.75 730.17,391.99 29.6,396.04l-871.41 5.36c-53.36,14.89 -85.42,45.76 -100.53,108.59l0 878.93 -61.14 1.68 -72.02 1.22 -98.54 0.68 -98.5 -0.68 -72.02 -1.22 -61.14 -1.68 0 -885.38c-8.89,-61.05 -53.76,-97.04 -105.71,-102.18l-1061.57 -16.84c-700.57,-27.08 -472.37,-366.1 -2.5,-375.15l1169.78 -16.13 0 -444.76c2.14,-45.48 -65.06,-122.27 -124.42,-116.31l-3079.86 -60.96c-491.17,3.39 -702.18,-339.72 125.72,-362.73l3078.56 -15.46 0 -436.16c0.05,-58.73 -69.4,-105.9 -129.19,-104.8l-3799.86 -33.96c-827.06,13.04 -539.48,-397.57 -79.65,-384.41l4008.7 -10.96 0 -577.11c-0.5,-39.44 -72.87,-91.98 -105.55,-94.26l105.55 0.01 -105.6 -0.01 -6323.77 -0.67 -39.9 -77.57 -36.38 -72.8 -52.4 -108.51 -33.7 -72.23 -24.57 -53.98 5598.63 -4.57c-609.35,-941.72 -644.78,-1003.51 -1021.89,-1603.75 -358.65,-76.11 -665.41,-241.41 -1025.84,-328.19l-407.57 -91.5c-266.74,-472.09 -1028.88,-682.8 -1591.69,-761.48 -35.91,-92.01 -80.14,-173.64 -64.04,-319.75 344.78,51.17 858.18,54.28 1814.15,709.34 69.44,-364.83 -107.31,-779.94 -670.34,-1137.84 -500.5,-256.97 -1176.06,-255.86 -2065.85,-40.57 187.56,943.08 607.22,1425.14 1239.88,1780.04 239.79,124.09 1085.73,310.03 1337.89,-229.74l407.57 91.5c-316.53,763.44 -1485.08,740.56 -2197.58,277.06 -760.56,-642.8 -988.2,-1060.21 -1217.94,-2254.22 756.34,-101.02 1310.28,-279.9 2303.42,-92.25 624.26,182.13 1230.82,709.14 1282.37,1691.39 175.5,50.32 319.49,59.62 517.63,70.03 -324.45,-612.42 -537.38,-1112.87 -752.57,-1744.46 -396.99,-355.45 -761.48,-732.57 -1085.31,-1180.14l186.8 -374.79c34.31,-48.37 52.93,-204.24 18.75,-501.94 -33.38,-196.79 -81.2,-356.63 -178.17,-537.53 -276.52,-538.78 -989.18,-384.52 -869.18,177.65 229.01,648.23 630.76,782.64 878.03,836.03 63.83,13.78 114.21,23.23 150.57,25.79l-186.8 374.79c-396.94,-53.57 -755.22,-292.64 -1053.14,-757.26 -251.59,-445.87 -276.75,-1072.38 355.89,-1303.66 451.69,-128.69 862.45,100.08 1096.98,487.03 198.73,357.35 449.16,1212.77 -28.03,1442.87 209.5,252.25 409.59,572.87 654.43,749.73 -16.8,-683.36 27.7,-1539.62 227.1,-2581.65 -1186.19,-445.79 -821.94,-1573.06 -68.87,-1747.06 702.83,-178.64 1630.07,634.41 900.82,1384.46l-265.99 -312.87c403.43,-578.41 -748.79,-1218.03 -937.92,-277.52 3.62,465.72 265.78,552.01 377.08,605.42 33.04,15.86 344.2,-86.64 560.84,-327.9l265.99 312.87c-138.78,129.49 -283.93,227.15 -464.1,302.51 -212.4,1070.35 -356.64,2093.45 -146.77,3034.23 398.42,1291.52 931.45,2220.66 1732.39,3338.46 -48.98,-828.75 20.63,-1648.38 -28.35,-2477.13 -217.13,-30.25 -703.23,-154.98 -749.07,-454.78 -72.87,-1089.48 -60.19,-1953.84 -54.62,-2541.43 9.18,-969.37 155.07,-1235.46 681.66,-1502.85 292.15,-75.1 581.3,-135.25 876.45,-171.45 -199.37,-102.59 -442.92,-406.81 -424.1,-838.06 -13.13,-291.41 230.26,-912.54 938.4,-932.95 650.76,-16.24 951.55,641.54 938.42,932.95 18.82,431.25 -224.73,735.47 -424.1,838.06 317.11,31.26 613.66,97.53 876.45,171.45 526.59,267.39 672.48,533.48 681.66,1502.85 5.57,587.59 18.25,1451.95 -54.62,2541.43 -45.84,299.8 -531.94,424.53 -749.07,454.78 -48.98,828.75 20.63,1648.38 -28.35,2477.13 800.94,-1117.8 1333.97,-2046.94 1732.39,-3338.46 209.87,-940.78 65.63,-1963.88 -146.77,-3034.23 -180.17,-75.36 -325.32,-173.02 -464.1,-302.51l265.99 -312.87c216.64,241.26 527.8,343.76 560.84,327.9 111.3,-53.41 373.46,-139.7 377.08,-605.42 -189.13,-940.51 -1341.35,-300.89 -937.92,277.52l-265.99 312.87c-729.25,-750.05 197.99,-1563.1 900.82,-1384.46 753.07,174 1117.32,1301.27 -68.87,1747.06 199.4,1042.03 243.9,1898.29 227.1,2581.65 244.84,-176.86 444.93,-497.48 654.43,-749.73 -477.19,-230.1 -226.76,-1085.52 -28.03,-1442.87 234.53,-386.95 645.29,-615.72 1096.98,-487.03 632.64,231.28 607.48,857.79 355.89,1303.66 -297.92,464.62 -656.2,703.69 -1053.14,757.26l-186.8 -374.79c36.36,-2.56 86.74,-12.01 150.57,-25.79 247.27,-53.39 649.02,-187.8 878.03,-836.03 120,-562.17 -592.66,-716.43 -869.18,-177.65 -96.97,180.9 -144.79,340.74 -178.17,537.53 -34.18,297.7 -15.56,453.57 18.75,501.94l186.8 374.79c-323.83,447.57 -688.32,824.69 -1085.31,1180.14 -215.19,631.59 -428.12,1132.04 -752.57,1744.46 198.14,-10.41 342.13,-19.71 517.63,-70.03 51.55,-982.25 658.11,-1509.26 1282.37,-1691.39 993.14,-187.65 1547.08,-8.77 2303.42,92.25 -229.74,1194.01 -457.38,1611.42 -1217.94,2254.22 -712.5,463.5 -1881.05,486.38 -2197.58,-277.06l407.57 -91.5c252.16,539.77 1098.1,353.83 1337.89,229.74 632.66,-354.9 1052.32,-836.96 1239.88,-1780.04 -889.79,-215.29 -1565.35,-216.4 -2065.85,40.57 -563.03,357.9 -739.78,773.01 -670.34,1137.84 955.97,-655.06 1469.37,-658.17 1814.15,-709.34 16.1,146.11 -28.13,227.74 -64.04,319.75 -562.81,78.68 -1324.95,289.39 -1591.69,761.48l-407.57 91.5c-360.43,86.78 -667.19,252.08 -1025.84,328.19 -377.11,600.24 -412.54,662.03 -1021.89,1603.75l5598.63 4.57 -24.57 53.98 -33.7 72.23 -52.4 108.51 -36.38 72.8 -39.9 77.57 -6288 0.67 -141.38 0.01zm-231.73 -7810.12c396.48,343.28 847.47,902.13 273.5,1271.21l-16.9 6153.28 518.52 1.44c143.86,-1040.88 197.79,-2800.41 67,-5779.08 1.48,-133.76 -33.22,-296.89 305.64,-497.2 87.79,298.39 81.64,1220.8 124.16,2552.53 130.77,-21.58 355.28,-24.08 387.6,-241.29 48.19,-1436.74 47.22,-1960.02 -34.45,-2917.95 -57.28,-440.09 -612.85,-536.2 -1624.96,-802.79 -1012.11,266.59 -1567.78,362.7 -1625.06,802.79 -81.67,957.93 -82.64,1481.21 -34.45,2917.95 32.32,217.21 256.83,219.71 387.6,241.29 42.52,-1331.73 36.37,-2254.14 124.16,-2552.53 338.86,200.31 304.16,363.44 305.64,497.2 -130.79,2978.67 -76.86,4738.2 67,5779.08l518.52 -1.44 -16.9 -6153.28c-573.97,-369.08 -123.1,-927.93 273.38,-1271.21zm0.03 -700.29c292.93,-21.04 537.81,-222.65 542.97,-725.17 -3.7,-266.58 -171.91,-519.74 -542.95,-521.17l0 0.01c-371.04,1.43 -539.23,254.58 -542.93,521.16 5.16,502.52 270.49,717.79 542.91,725.17z"/>
  <path class="fil3" d="M10455.86 17911.32l141.37 -0.01c-70.74,4.73 -137.79,44.03 -141.37,103.58l0.01 567.79 3775.97 12.95c782.07,-19.14 1035.73,415.91 -4.16,380.99l-3625.46 35.21c-94.05,7.73 -141.69,31.89 -147.72,108.72l0 432.42 2916.85 8.41c1042.87,29.06 1155.95,318.67 -198.67,375.83l-2574.27 54.53c-81.48,9.6 -118.74,29.44 -142.54,121.07l0 440.38 942.34 6.76c1034.13,11.75 730.17,391.99 29.6,396.04l-871.41 5.36c-53.36,14.89 -85.42,45.76 -100.53,108.59l0 878.93 -61.14 1.68 -72.02 1.22 -98.54 0.68 -98.5 -0.68 -72.02 -1.22 -61.14 -1.68 0 -885.38c-8.89,-61.05 -53.76,-97.04 -105.71,-102.18l-1061.57 -16.84c-700.57,-27.08 -472.37,-366.1 -2.5,-375.15l1169.78 -16.13 0 -444.76c2.14,-45.48 -65.06,-122.27 -124.42,-116.31l-3079.86 -60.96c-491.17,3.39 -702.18,-339.72 125.72,-362.73l3078.56 -15.46 0 -436.16c0.05,-58.73 -69.4,-105.9 -129.19,-104.8l-3799.86 -33.96c-827.06,13.04 -539.48,-397.57 -79.65,-384.41l4008.7 -10.96 0 -577.11c-0.5,-39.44 -72.87,-91.98 -105.55,-94.26l105.55 0.01 -105.6 -0.01 -6323.77 -0.67 -39.9 -77.57 -36.38 -72.8 -52.4 -108.51 -33.7 -72.23 -24.57 -53.98 5598.63 -4.57c-609.35,-941.72 -644.78,-1003.51 -1021.89,-1603.75 -358.65,-76.11 -665.41,-241.41 -1025.84,-328.19l-407.57 -91.5c-266.74,-472.09 -1028.88,-682.8 -1591.69,-761.48 -35.91,-92.01 -80.14,-173.64 -64.04,-319.75 344.78,51.17 858.18,54.28 1814.15,709.34 69.44,-364.83 -107.31,-779.94 -670.34,-1137.84 -500.5,-256.97 -1176.06,-255.86 -2065.85,-40.57 187.56,943.08 607.22,1425.14 1239.88,1780.04 239.79,124.09 1085.73,310.03 1337.89,-229.74l407.57 91.5c-316.53,763.44 -1485.08,740.56 -2197.58,277.06 -760.56,-642.8 -988.2,-1060.21 -1217.94,-2254.22 756.34,-101.02 1310.28,-279.9 2303.42,-92.25 624.26,182.13 1230.82,709.14 1282.37,1691.39 175.5,50.32 319.49,59.62 517.63,70.03 -324.45,-612.42 -537.38,-1112.87 -752.57,-1744.46 -396.99,-355.45 -761.48,-732.57 -1085.31,-1180.14l186.8 -374.79c34.31,-48.37 52.93,-204.24 18.75,-501.94 -33.38,-196.79 -81.2,-356.63 -178.17,-537.53 -276.52,-538.78 -989.18,-384.52 -869.18,177.65 229.01,648.23 630.76,782.64 878.03,836.03 63.83,13.78 114.21,23.23 150.57,25.79l-186.8 374.79c-396.94,-53.57 -755.22,-292.64 -1053.14,-757.26 -251.59,-445.87 -276.75,-1072.38 355.89,-1303.66 451.69,-128.69 862.45,100.08 1096.98,487.03 198.73,357.35 449.16,1212.77 -28.03,1442.87 209.5,252.25 409.59,572.87 654.43,749.73 -16.8,-683.36 27.7,-1539.62 227.1,-2581.65 -1186.19,-445.79 -821.94,-1573.06 -68.87,-1747.06 702.83,-178.64 1630.07,634.41 900.82,1384.46l-265.99 -312.87c403.43,-578.41 -748.79,-1218.03 -937.92,-277.52 3.62,465.72 265.78,552.01 377.08,605.42 33.04,15.86 344.2,-86.64 560.84,-327.9l265.99 312.87c-138.78,129.49 -283.93,227.15 -464.1,302.51 -212.4,1070.35 -356.64,2093.45 -146.77,3034.23 398.42,1291.52 931.45,2220.66 1732.39,3338.46 -48.98,-828.75 20.63,-1648.38 -28.35,-2477.13 -217.13,-30.25 -703.23,-154.98 -749.07,-454.78 -72.87,-1089.48 -60.19,-1953.84 -54.62,-2541.43 9.18,-969.37 155.07,-1235.46 681.66,-1502.85 292.15,-75.1 581.3,-135.25 876.45,-171.45 -199.37,-102.59 -442.92,-406.81 -424.1,-838.06 -13.13,-291.41 230.26,-912.54 938.4,-932.95 650.76,-16.24 951.55,641.54 938.42,932.95 18.82,431.25 -224.73,735.47 -424.1,838.06 317.11,31.26 613.66,97.53 876.45,171.45 526.59,267.39 672.48,533.48 681.66,1502.85 5.57,587.59 18.25,1451.95 -54.62,2541.43 -45.84,299.8 -531.94,424.53 -749.07,454.78 -48.98,828.75 20.63,1648.38 -28.35,2477.13 800.94,-1117.8 1333.97,-2046.94 1732.39,-3338.46 209.87,-940.78 65.63,-1963.88 -146.77,-3034.23 -180.17,-75.36 -325.32,-173.02 -464.1,-302.51l265.99 -312.87c216.64,241.26 527.8,343.76 560.84,327.9 111.3,-53.41 373.46,-139.7 377.08,-605.42 -189.13,-940.51 -1341.35,-300.89 -937.92,277.52l-265.99 312.87c-729.25,-750.05 197.99,-1563.1 900.82,-1384.46 753.07,174 1117.32,1301.27 -68.87,1747.06 199.4,1042.03 243.9,1898.29 227.1,2581.65 244.84,-176.86 444.93,-497.48 654.43,-749.73 -477.19,-230.1 -226.76,-1085.52 -28.03,-1442.87 234.53,-386.95 645.29,-615.72 1096.98,-487.03 632.64,231.28 607.48,857.79 355.89,1303.66 -297.92,464.62 -656.2,703.69 -1053.14,757.26l-186.8 -374.79c36.36,-2.56 86.74,-12.01 150.57,-25.79 247.27,-53.39 649.02,-187.8 878.03,-836.03 120,-562.17 -592.66,-716.43 -869.18,-177.65 -96.97,180.9 -144.79,340.74 -178.17,537.53 -34.18,297.7 -15.56,453.57 18.75,501.94l186.8 374.79c-323.83,447.57 -688.32,824.69 -1085.31,1180.14 -215.19,631.59 -428.12,1132.04 -752.57,1744.46 198.14,-10.41 342.13,-19.71 517.63,-70.03 51.55,-982.25 658.11,-1509.26 1282.37,-1691.39 993.14,-187.65 1547.08,-8.77 2303.42,92.25 -229.74,1194.01 -457.38,1611.42 -1217.94,2254.22 -712.5,463.5 -1881.05,486.38 -2197.58,-277.06l407.57 -91.5c252.16,539.77 1098.1,353.83 1337.89,229.74 632.66,-354.9 1052.32,-836.96 1239.88,-1780.04 -889.79,-215.29 -1565.35,-216.4 -2065.85,40.57 -563.03,357.9 -739.78,773.01 -670.34,1137.84 955.97,-655.06 1469.37,-658.17 1814.15,-709.34 16.1,146.11 -28.13,227.74 -64.04,319.75 -562.81,78.68 -1324.95,289.39 -1591.69,761.48l-407.57 91.5c-360.43,86.78 -667.19,252.08 -1025.84,328.19 -377.11,600.24 -412.54,662.03 -1021.89,1603.75l5598.63 4.57 -24.57 53.98 -33.7 72.23 -52.4 108.51 -36.38 72.8 -39.9 77.57 -6288 0.67 -141.38 0.01zm-231.73 -7810.12c396.48,343.28 847.47,902.13 273.5,1271.21l-16.9 6153.28 518.52 1.44c143.86,-1040.88 197.79,-2800.41 67,-5779.08 1.48,-133.76 -33.22,-296.89 305.64,-497.2 87.79,298.39 81.64,1220.8 124.16,2552.53 130.77,-21.58 355.28,-24.08 387.6,-241.29 48.19,-1436.74 47.22,-1960.02 -34.45,-2917.95 -57.28,-440.09 -612.85,-536.2 -1624.96,-802.79 -1012.11,266.59 -1567.78,362.7 -1625.06,802.79 -81.67,957.93 -82.64,1481.21 -34.45,2917.95 32.32,217.21 256.83,219.71 387.6,241.29 42.52,-1331.73 36.37,-2254.14 124.16,-2552.53 338.86,200.31 304.16,363.44 305.64,497.2 -130.79,2978.67 -76.86,4738.2 67,5779.08l518.52 -1.44 -16.9 -6153.28c-573.97,-369.08 -123.1,-927.93 273.38,-1271.21zm0.03 -700.29c292.93,-21.04 537.81,-222.65 542.97,-725.17 -3.7,-266.58 -171.91,-519.74 -542.95,-521.17l0 0.01c-371.04,1.43 -539.23,254.58 -542.93,521.16 5.16,502.52 270.49,717.79 542.91,725.17z"/>
  <path class="fil3" d="M10236.08 6581.61c4342.07,0 7862.02,3520.34 7862.02,7862.89 0,4342.54 -3519.95,7862.88 -7862.02,7862.88 -4342.07,0 -7862.02,-3520.34 -7862.02,-7862.88 0,-4342.55 3519.95,-7862.89 7862.02,-7862.89zm-11.76 357.44c4144.84,0 7504.9,3360.43 7504.9,7505.73 0,4145.29 -3360.06,7505.72 -7504.9,7505.72 -4144.85,0 -7504.9,-3360.43 -7504.9,-7505.72 0,-4145.3 3360.05,-7505.73 7504.9,-7505.73z"/>
 </g>
</svg>
